<svg width="118" height="149" viewBox="0 0 118 149" fill="none" xmlns="http://www.w3.org/2000/svg">
<g clip-path="url(#clip0)">
<path d="M117.167 6.48334C116.55 4.36278 115.138 2.6206 113.191 1.57737C109.291 -0.512261 104.369 0.933629 102.219 4.80071L94.7482 18.2386C86.7683 16.6687 78.1699 18.9616 71.9993 25.1212C71.9195 25.201 71.8435 25.2863 71.7735 25.3747C67.2078 31.1488 53.3336 45.9253 44.0761 44.9954C42.7297 44.8564 41.4711 45.6744 41.0436 46.9573C40.616 48.2402 41.1346 49.6479 42.2926 50.3465C46.9271 53.1427 52.082 55.2788 58.6035 54.5735C51.7918 64.5496 37.6607 82.0628 15.5829 94.6795C6.98622 99.5924 0.503418 110.416 0.503418 119.857C0.503418 127.435 3.49493 134.537 8.92728 139.852C14.2001 145.012 21.3275 148.092 28.9969 148.523C30.145 148.588 31.2854 148.62 32.4197 148.62C43.1974 148.62 53.331 145.705 62.5857 139.935C70.9557 134.716 78.6523 127.131 85.4615 117.392C95.2191 103.436 101.075 88.0579 104.014 78.8539C104.725 79.7685 105.489 80.6926 106.32 81.6274C106.88 82.2573 107.672 82.5973 108.481 82.5973C108.844 82.5973 109.21 82.5287 109.561 82.3877C110.693 81.9313 111.417 80.8129 111.369 79.593C110.938 68.6326 112.033 57.5691 114.452 48.4405C114.463 48.3994 114.473 48.3581 114.482 48.3165C116.203 40.4303 114.086 32.3339 108.809 26.3333L116.446 12.7563C117.528 10.8317 117.784 8.60361 117.167 6.48334ZM80.7226 114.079C66.6337 134.231 49.342 143.879 29.3212 142.751C16.1879 142.012 6.28409 132.169 6.28409 119.856C6.28409 112.575 11.7422 103.533 18.451 99.6988C46.4201 83.7148 62.1963 60.1923 66.9253 52.3148C70.8199 50.67 75.1469 48.0846 80.0153 44.2783C80.0618 44.2418 80.1147 44.2008 80.226 44.2563C80.3456 44.3161 80.3442 44.3948 80.343 44.4523C80.2135 51.1819 81.0955 57.2919 85.8844 66.9445C86.4333 68.0508 87.624 68.6876 88.8487 68.526C90.0732 68.3658 91.0606 67.4455 91.3063 66.2352C92.2186 61.7434 93.4691 56.6634 95.8475 52.5507C95.3919 58.0605 95.7333 64.8442 99.8721 72.5506C97.7894 79.9578 91.9376 98.0384 80.7226 114.079ZM108.845 47.0244C106.956 54.1784 105.832 62.4224 105.56 70.8885C101.331 63.6469 101.154 57.4309 101.693 52.1208C101.958 49.5083 100.47 47.1692 97.9897 46.3C97.3668 46.0817 96.7352 45.9762 96.1157 45.9762C94.2999 45.9762 92.5929 46.8827 91.5448 48.5072C89.9321 51.0071 88.7371 53.7769 87.8095 56.5857C86.1812 51.5803 86.0569 48.0063 86.1231 44.5639C86.1679 42.2274 84.8981 40.1279 82.8093 39.0847C80.7258 38.0441 78.2904 38.2889 76.4543 39.7241C65.9729 47.9202 58.9105 49.6268 53.3862 48.7055C57.1799 46.9469 61.2854 44.0933 65.6731 40.1588C71.2792 35.132 75.4475 30.0336 76.1956 29.1016C83.7872 21.6429 96.0409 21.6802 103.586 29.2126C108.275 33.8931 110.238 40.5473 108.845 47.0244ZM111.406 9.92203L104.401 22.3751C103.113 21.4646 101.761 20.685 100.359 20.0441L107.272 7.60982C107.897 6.48565 109.327 6.06565 110.46 6.67297C111.026 6.97619 111.437 7.48234 111.616 8.09862C111.796 8.71519 111.721 9.36269 111.406 9.92203Z" fill="white"/>
<path d="M74.3592 104.503C73.0252 103.626 71.233 103.996 70.356 105.331C62.1851 117.761 52.4188 125.896 41.3289 129.509C39.8111 130.003 38.9814 131.635 39.4757 133.153C39.8732 134.373 41.006 135.149 42.2236 135.149C42.5201 135.149 42.8222 135.103 43.1197 135.006C55.4886 130.976 66.2776 122.06 75.1871 108.506C76.0638 107.172 75.6932 105.38 74.3592 104.503Z" fill="white"/>
<path d="M80.021 95.769C79.4833 95.2313 78.7401 94.922 77.9773 94.922C77.2171 94.922 76.4713 95.2313 75.9336 95.769C75.396 96.3066 75.0867 97.0524 75.0867 97.8126C75.0867 98.5758 75.396 99.3187 75.9336 99.8563C76.4713 100.397 77.2171 100.703 77.9773 100.703C78.7404 100.703 79.4833 100.397 80.021 99.8563C80.5586 99.3187 80.8679 98.5758 80.8679 97.8126C80.8679 97.0524 80.5586 96.3066 80.021 95.769Z" fill="white"/>
</g>
<defs>
<clipPath id="clip0">
<rect width="116.92" height="148" fill="white" transform="translate(0.540039 0.619995)"/>
</clipPath>
</defs>
</svg>
